<svg width="65" height="65" viewBox="0 0 65 65" fill="none" xmlns="http://www.w3.org/2000/svg">
<g clip-path="url(#clip0_67_112)">
<path d="M33.0046 23.2142C31.1788 23.2136 29.3938 23.7622 27.8756 24.7904C26.3574 25.8186 25.1742 27.2803 24.4758 28.9905C23.7773 30.7007 23.595 32.5825 23.952 34.3977C24.3089 36.213 25.189 37.8801 26.4809 39.1881C27.7728 40.4961 29.4184 41.3862 31.2094 41.7457C33.0005 42.1052 34.8565 41.9179 36.5426 41.2077C38.2286 40.4974 39.6689 39.2961 40.6813 37.7556C41.6936 36.2152 42.2323 34.405 42.2294 32.554C42.2231 30.0768 41.2489 27.7031 39.5199 25.9526C37.7909 24.202 35.4482 23.2174 33.0046 23.2142V23.2142Z" fill="#007bb6"/>
<path d="M33.0046 4.78406e-07C31.1788 -0.000591349 29.3938 0.547934 27.8756 1.57616C26.3574 2.60438 25.1742 4.06606 24.4758 5.77625C23.7773 7.48643 23.595 9.36824 23.952 11.1835C24.3089 12.9988 25.189 14.6659 26.4809 15.9739C27.7728 17.2819 29.4184 18.1719 31.2094 18.5314C33.0005 18.8909 34.8565 18.7037 36.5426 17.9934C38.2286 17.2832 39.669 16.0818 40.6813 14.5414C41.6936 13.001 42.2323 11.1907 42.2294 9.33976C42.2231 6.86258 41.2489 4.48885 39.5199 2.73833C37.7909 0.987817 35.4482 0.00317026 33.0046 4.78406e-07V4.78406e-07Z" fill="#007bb6"/>
<path d="M17.846 12.8234C15.9968 11.7402 13.8344 11.3405 11.7272 11.6925C9.61992 12.0445 7.69826 13.1263 6.28964 14.7536C4.88101 16.3809 4.07258 18.4531 4.0021 20.617C3.93162 22.7808 4.60345 24.9025 5.90311 26.6205C7.20277 28.3385 9.04984 29.5465 11.1296 30.0386C13.2093 30.5308 15.3931 30.2766 17.3087 29.3194C19.2243 28.3623 20.7532 26.7613 21.635 24.7894C22.5167 22.8175 22.6968 20.5967 22.1444 18.5053C21.5104 16.109 19.9645 14.0655 17.846 12.8234V12.8234Z" fill="#007bb6"/>
<path d="M8.61839 35.9716C7.03833 36.8969 5.76432 38.2763 4.95741 39.9354C4.1505 41.5945 3.8469 43.4589 4.08501 45.2929C4.32312 47.1269 5.09223 48.8482 6.29514 50.2392C7.49804 51.6301 9.08072 52.6283 10.8431 53.1076C12.309 53.5062 13.8492 53.5321 15.3273 53.1831C16.8055 52.834 18.1758 52.1207 19.3171 51.1064C20.4583 50.0922 21.3351 48.8082 21.8698 47.3683C22.4046 45.9283 22.5807 44.3769 22.3827 42.8515C22.1847 41.3261 21.6185 39.8737 20.7345 38.6231C19.8504 37.3725 18.6757 36.3622 17.3145 35.6818C15.9533 35.0014 14.4475 34.6719 12.9306 34.7225C11.4138 34.773 9.9326 35.2021 8.61839 35.9716V35.9716Z" fill="#007bb6"/>
<path d="M33.0046 46.2784C31.1794 46.2778 29.3951 46.826 27.8772 47.8536C26.3593 48.8811 25.1761 50.3419 24.4772 52.0512C23.7783 53.7605 23.5952 55.6416 23.9509 57.4564C24.3066 59.2713 25.1852 60.9384 26.4756 62.247C27.766 63.5556 29.4102 64.4469 31.2003 64.8081C32.9904 65.1693 34.846 64.9842 36.5323 64.2762C38.2186 63.5683 39.66 62.3692 40.6741 60.8308C41.6881 59.2923 42.2294 57.4836 42.2294 55.6332C42.2271 53.1534 41.2545 50.7759 39.5251 49.0221C37.7957 47.2683 35.4508 46.2816 33.0046 46.2784V46.2784Z" fill="#007bb6"/>
<path d="M57.3906 35.9716C55.8101 35.046 53.9943 34.6164 52.1729 34.7371C50.3515 34.8578 48.6063 35.5234 47.1581 36.6497C45.7099 37.776 44.6237 39.3124 44.0369 41.0646C43.4502 42.8168 43.3892 44.7061 43.8616 46.4934C44.3341 48.2808 45.3188 49.8859 46.6913 51.1059C48.0637 52.3258 49.7622 53.1057 51.5719 53.3469C53.3816 53.5881 55.2212 53.2799 56.8581 52.4611C58.495 51.6423 59.8555 50.3497 60.7677 48.7469C61.379 47.6847 61.7766 46.5103 61.9377 45.2914C62.0987 44.0726 62.02 42.8334 61.706 41.6456C61.392 40.4578 60.849 39.3448 60.1083 38.3709C59.3676 37.397 58.4439 36.5815 57.3906 35.9716V35.9716Z" fill="#007bb6"/>
<path d="M50.3877 29.9624C52.1504 30.4428 54.0141 30.3824 55.743 29.7889C57.4719 29.1954 58.9883 28.0954 60.1004 26.6281C61.2126 25.1608 61.8705 23.3921 61.9909 21.5457C62.1114 19.6993 61.689 17.8581 60.7771 16.2551C59.8653 14.6521 58.505 13.3592 56.8682 12.5401C55.2315 11.7209 53.3919 11.4123 51.5821 11.6532C49.7723 11.894 48.0736 12.6737 46.7009 13.8934C45.3283 15.1131 44.3432 16.7181 43.8705 18.5054C43.2385 20.9007 43.5698 23.4524 44.7916 25.6004C46.0135 27.7483 48.0261 29.3171 50.3877 29.9624V29.9624Z" fill="#007bb6"/>
</g>
<defs>
<clipPath id="clip0_67_112">
<rect width="58" height="65" fill="#007bb6" transform="translate(4)"/>
</clipPath>
</defs>
</svg>
